<mxfile host="app.diagrams.net" modified="2024-05-01T15:50:31.971Z" agent="Mozilla/5.0 (Windows NT 10.0; Win64; x64) AppleWebKit/537.36 (KHTML, like Gecko) Chrome/124.0.0.0 Safari/537.36" etag="uy1NtnFSbqGakjFvEuZC" version="24.3.1" type="device">
  <diagram name="Page-1" id="iU7RJrzu1gLZhCLF3Y5w">
    <mxGraphModel dx="2899" dy="1066" grid="1" gridSize="10" guides="1" tooltips="1" connect="1" arrows="1" fold="1" page="1" pageScale="1" pageWidth="850" pageHeight="1100" math="0" shadow="0">
      <root>
        <mxCell id="0" />
        <mxCell id="1" parent="0" />
        <mxCell id="sHI6xB2BKC_EtL97-jcw-3" value="" style="edgeStyle=orthogonalEdgeStyle;rounded=0;orthogonalLoop=1;jettySize=auto;html=1;" edge="1" parent="1" source="sHI6xB2BKC_EtL97-jcw-1" target="sHI6xB2BKC_EtL97-jcw-2">
          <mxGeometry relative="1" as="geometry" />
        </mxCell>
        <mxCell id="sHI6xB2BKC_EtL97-jcw-1" value="&lt;b&gt;3 day letter&lt;/b&gt;" style="rounded=0;whiteSpace=wrap;html=1;" vertex="1" parent="1">
          <mxGeometry x="-500" y="90" width="90" height="60" as="geometry" />
        </mxCell>
        <mxCell id="sHI6xB2BKC_EtL97-jcw-5" value="" style="edgeStyle=orthogonalEdgeStyle;rounded=0;orthogonalLoop=1;jettySize=auto;html=1;" edge="1" parent="1" source="sHI6xB2BKC_EtL97-jcw-2" target="sHI6xB2BKC_EtL97-jcw-4">
          <mxGeometry relative="1" as="geometry" />
        </mxCell>
        <mxCell id="sHI6xB2BKC_EtL97-jcw-2" value="&lt;ul&gt;&lt;li&gt;Names are sent to administration&lt;br&gt;&lt;/li&gt;&lt;li&gt;&lt;span style=&quot;background-color: initial;&quot;&gt;Adminisistrator informs counselor and CIS if needed.&lt;/span&gt;&lt;br&gt;&lt;/li&gt;&lt;/ul&gt;" style="rounded=0;whiteSpace=wrap;html=1;align=left;" vertex="1" parent="1">
          <mxGeometry x="-628" y="183" width="346" height="60" as="geometry" />
        </mxCell>
        <mxCell id="sHI6xB2BKC_EtL97-jcw-7" value="&lt;b&gt;7th-11th&lt;/b&gt;" style="edgeStyle=orthogonalEdgeStyle;rounded=0;orthogonalLoop=1;jettySize=auto;html=1;" edge="1" parent="1" source="sHI6xB2BKC_EtL97-jcw-4" target="sHI6xB2BKC_EtL97-jcw-6">
          <mxGeometry relative="1" as="geometry" />
        </mxCell>
        <mxCell id="sHI6xB2BKC_EtL97-jcw-9" value="" style="edgeStyle=orthogonalEdgeStyle;rounded=0;orthogonalLoop=1;jettySize=auto;html=1;" edge="1" parent="1" source="sHI6xB2BKC_EtL97-jcw-4" target="sHI6xB2BKC_EtL97-jcw-8">
          <mxGeometry relative="1" as="geometry" />
        </mxCell>
        <mxCell id="sHI6xB2BKC_EtL97-jcw-11" value="" style="edgeStyle=orthogonalEdgeStyle;rounded=0;orthogonalLoop=1;jettySize=auto;html=1;" edge="1" parent="1" source="sHI6xB2BKC_EtL97-jcw-4" target="sHI6xB2BKC_EtL97-jcw-10">
          <mxGeometry relative="1" as="geometry" />
        </mxCell>
        <mxCell id="sHI6xB2BKC_EtL97-jcw-4" value="&lt;b&gt;5 day letter&lt;/b&gt;" style="rounded=0;whiteSpace=wrap;html=1;" vertex="1" parent="1">
          <mxGeometry x="-500" y="283" width="90" height="60" as="geometry" />
        </mxCell>
        <mxCell id="sHI6xB2BKC_EtL97-jcw-6" value="&lt;div&gt;&lt;ul&gt;&lt;li&gt;Truency Officer contacts individual student at the school and sends a note home with student.&lt;/li&gt;&lt;/ul&gt;&lt;/div&gt;" style="rounded=0;whiteSpace=wrap;html=1;align=left;spacing=-10;" vertex="1" parent="1">
          <mxGeometry x="-340" y="283" width="290" height="60" as="geometry" />
        </mxCell>
        <mxCell id="sHI6xB2BKC_EtL97-jcw-8" value="&lt;ul&gt;&lt;li&gt;Attendance Director communicates with counselors, secretaries and community in schools.&lt;/li&gt;&lt;/ul&gt;" style="rounded=0;whiteSpace=wrap;html=1;align=left;spacing=-10;" vertex="1" parent="1">
          <mxGeometry x="-830" y="283" width="280" height="60" as="geometry" />
        </mxCell>
        <mxCell id="sHI6xB2BKC_EtL97-jcw-13" value="" style="edgeStyle=orthogonalEdgeStyle;rounded=0;orthogonalLoop=1;jettySize=auto;html=1;" edge="1" parent="1" source="sHI6xB2BKC_EtL97-jcw-10" target="sHI6xB2BKC_EtL97-jcw-12">
          <mxGeometry relative="1" as="geometry" />
        </mxCell>
        <mxCell id="sHI6xB2BKC_EtL97-jcw-15" value="" style="edgeStyle=orthogonalEdgeStyle;rounded=0;orthogonalLoop=1;jettySize=auto;html=1;" edge="1" parent="1" source="sHI6xB2BKC_EtL97-jcw-10" target="sHI6xB2BKC_EtL97-jcw-14">
          <mxGeometry relative="1" as="geometry" />
        </mxCell>
        <mxCell id="sHI6xB2BKC_EtL97-jcw-10" value="&lt;b&gt;10 day letter&lt;/b&gt;" style="rounded=0;whiteSpace=wrap;html=1;" vertex="1" parent="1">
          <mxGeometry x="-500" y="393" width="90" height="60" as="geometry" />
        </mxCell>
        <mxCell id="sHI6xB2BKC_EtL97-jcw-36" value="" style="edgeStyle=orthogonalEdgeStyle;rounded=0;orthogonalLoop=1;jettySize=auto;html=1;" edge="1" parent="1" source="sHI6xB2BKC_EtL97-jcw-12" target="sHI6xB2BKC_EtL97-jcw-35">
          <mxGeometry relative="1" as="geometry" />
        </mxCell>
        <mxCell id="sHI6xB2BKC_EtL97-jcw-12" value="&lt;ul&gt;&lt;li&gt;Attendance Director holds contract meeting with parents&lt;/li&gt;&lt;/ul&gt;" style="rounded=0;whiteSpace=wrap;html=1;align=left;spacing=-9;" vertex="1" parent="1">
          <mxGeometry x="-340" y="393" width="290" height="60" as="geometry" />
        </mxCell>
        <mxCell id="sHI6xB2BKC_EtL97-jcw-24" value="" style="edgeStyle=orthogonalEdgeStyle;rounded=0;orthogonalLoop=1;jettySize=auto;html=1;" edge="1" parent="1" source="sHI6xB2BKC_EtL97-jcw-14" target="sHI6xB2BKC_EtL97-jcw-23">
          <mxGeometry relative="1" as="geometry" />
        </mxCell>
        <mxCell id="sHI6xB2BKC_EtL97-jcw-14" value="&lt;ul&gt;&lt;li&gt;School call Attendance Director call&lt;/li&gt;&lt;/ul&gt;" style="rounded=0;whiteSpace=wrap;html=1;align=left;spacing=-10;" vertex="1" parent="1">
          <mxGeometry x="-830" y="393" width="280" height="60" as="geometry" />
        </mxCell>
        <mxCell id="sHI6xB2BKC_EtL97-jcw-22" value="Jackson County Attendance Flowchart" style="text;html=1;align=center;verticalAlign=middle;whiteSpace=wrap;rounded=0;fontStyle=1" vertex="1" parent="1">
          <mxGeometry x="-570" y="13" width="230" height="30" as="geometry" />
        </mxCell>
        <mxCell id="sHI6xB2BKC_EtL97-jcw-26" value="&lt;b&gt;Yes&lt;/b&gt;" style="edgeStyle=orthogonalEdgeStyle;rounded=0;orthogonalLoop=1;jettySize=auto;html=1;" edge="1" parent="1" source="sHI6xB2BKC_EtL97-jcw-23" target="sHI6xB2BKC_EtL97-jcw-25">
          <mxGeometry relative="1" as="geometry" />
        </mxCell>
        <mxCell id="sHI6xB2BKC_EtL97-jcw-28" value="" style="edgeStyle=orthogonalEdgeStyle;rounded=0;orthogonalLoop=1;jettySize=auto;html=1;" edge="1" parent="1" source="sHI6xB2BKC_EtL97-jcw-23" target="sHI6xB2BKC_EtL97-jcw-27">
          <mxGeometry relative="1" as="geometry" />
        </mxCell>
        <mxCell id="sHI6xB2BKC_EtL97-jcw-23" value="Attendance Improves?" style="rhombus;whiteSpace=wrap;html=1;" vertex="1" parent="1">
          <mxGeometry x="-737.5" y="503" width="95" height="100" as="geometry" />
        </mxCell>
        <mxCell id="sHI6xB2BKC_EtL97-jcw-25" value="Monitor" style="ellipse;whiteSpace=wrap;html=1;" vertex="1" parent="1">
          <mxGeometry x="-830" y="528" width="50" height="50" as="geometry" />
        </mxCell>
        <mxCell id="sHI6xB2BKC_EtL97-jcw-30" value="" style="edgeStyle=orthogonalEdgeStyle;rounded=0;orthogonalLoop=1;jettySize=auto;html=1;" edge="1" parent="1" source="sHI6xB2BKC_EtL97-jcw-27" target="sHI6xB2BKC_EtL97-jcw-29">
          <mxGeometry relative="1" as="geometry" />
        </mxCell>
        <mxCell id="sHI6xB2BKC_EtL97-jcw-27" value="&lt;ul&gt;&lt;li&gt;File ? Magistrate Court&lt;/li&gt;&lt;/ul&gt;" style="whiteSpace=wrap;html=1;align=left;spacing=-10;" vertex="1" parent="1">
          <mxGeometry x="-830" y="643" width="280" height="60" as="geometry" />
        </mxCell>
        <mxCell id="sHI6xB2BKC_EtL97-jcw-32" value="" style="edgeStyle=orthogonalEdgeStyle;rounded=0;orthogonalLoop=1;jettySize=auto;html=1;" edge="1" parent="1" source="sHI6xB2BKC_EtL97-jcw-29" target="sHI6xB2BKC_EtL97-jcw-31">
          <mxGeometry relative="1" as="geometry" />
        </mxCell>
        <mxCell id="sHI6xB2BKC_EtL97-jcw-34" value="" style="edgeStyle=orthogonalEdgeStyle;rounded=0;orthogonalLoop=1;jettySize=auto;html=1;" edge="1" parent="1" source="sHI6xB2BKC_EtL97-jcw-29" target="sHI6xB2BKC_EtL97-jcw-33">
          <mxGeometry relative="1" as="geometry" />
        </mxCell>
        <mxCell id="sHI6xB2BKC_EtL97-jcw-29" value="" style="rhombus;whiteSpace=wrap;html=1;" vertex="1" parent="1">
          <mxGeometry x="-732.75" y="743" width="85.5" height="90" as="geometry" />
        </mxCell>
        <mxCell id="sHI6xB2BKC_EtL97-jcw-31" value="Monitor" style="ellipse;whiteSpace=wrap;html=1;" vertex="1" parent="1">
          <mxGeometry x="-820" y="763" width="50" height="50" as="geometry" />
        </mxCell>
        <mxCell id="sHI6xB2BKC_EtL97-jcw-33" value="Dismiss" style="ellipse;whiteSpace=wrap;html=1;" vertex="1" parent="1">
          <mxGeometry x="-610" y="763" width="50" height="50" as="geometry" />
        </mxCell>
        <mxCell id="sHI6xB2BKC_EtL97-jcw-38" value="&lt;b&gt;Yes&lt;/b&gt;" style="edgeStyle=orthogonalEdgeStyle;rounded=0;orthogonalLoop=1;jettySize=auto;html=1;" edge="1" parent="1" source="sHI6xB2BKC_EtL97-jcw-35" target="sHI6xB2BKC_EtL97-jcw-37">
          <mxGeometry relative="1" as="geometry" />
        </mxCell>
        <mxCell id="sHI6xB2BKC_EtL97-jcw-40" value="No" style="edgeStyle=orthogonalEdgeStyle;rounded=0;orthogonalLoop=1;jettySize=auto;html=1;" edge="1" parent="1" source="sHI6xB2BKC_EtL97-jcw-35" target="sHI6xB2BKC_EtL97-jcw-39">
          <mxGeometry relative="1" as="geometry" />
        </mxCell>
        <mxCell id="sHI6xB2BKC_EtL97-jcw-35" value="Successful?" style="rhombus;whiteSpace=wrap;html=1;rounded=0;" vertex="1" parent="1">
          <mxGeometry x="-242.5" y="503" width="95" height="90" as="geometry" />
        </mxCell>
        <mxCell id="sHI6xB2BKC_EtL97-jcw-37" value="Monitor" style="ellipse;whiteSpace=wrap;html=1;rounded=0;" vertex="1" parent="1">
          <mxGeometry x="-345" y="523" width="50" height="50" as="geometry" />
        </mxCell>
        <mxCell id="sHI6xB2BKC_EtL97-jcw-44" value="" style="edgeStyle=orthogonalEdgeStyle;rounded=0;orthogonalLoop=1;jettySize=auto;html=1;entryX=0.5;entryY=0;entryDx=0;entryDy=0;" edge="1" parent="1" source="sHI6xB2BKC_EtL97-jcw-39" target="sHI6xB2BKC_EtL97-jcw-43">
          <mxGeometry relative="1" as="geometry">
            <mxPoint x="-194.9411764705883" y="758.0588235294117" as="targetPoint" />
          </mxGeometry>
        </mxCell>
        <mxCell id="sHI6xB2BKC_EtL97-jcw-39" value="&lt;div&gt;&lt;ul&gt;&lt;li&gt;Petition is sent to prosecutor&lt;/li&gt;&lt;li&gt;&lt;span style=&quot;background-color: initial;&quot;&gt;Prosecutor file in Circuit Court&lt;/span&gt;&lt;/li&gt;&lt;li&gt;&lt;span style=&quot;background-color: initial;&quot;&gt;&lt;span style=&quot;text-align: center;&quot;&gt;Hearing judge sets up a MDT to provide services within the home&lt;/span&gt;&lt;br&gt;&lt;/span&gt;&lt;/li&gt;&lt;/ul&gt;&lt;/div&gt;" style="whiteSpace=wrap;html=1;rounded=0;align=left;spacing=-10;" vertex="1" parent="1">
          <mxGeometry x="-340" y="628" width="290" height="70" as="geometry" />
        </mxCell>
        <mxCell id="sHI6xB2BKC_EtL97-jcw-46" value="&lt;b&gt;Yes&lt;/b&gt;" style="edgeStyle=orthogonalEdgeStyle;rounded=0;orthogonalLoop=1;jettySize=auto;html=1;exitX=0;exitY=0.5;exitDx=0;exitDy=0;entryX=1;entryY=0.5;entryDx=0;entryDy=0;" edge="1" parent="1" target="sHI6xB2BKC_EtL97-jcw-45">
          <mxGeometry relative="1" as="geometry">
            <mxPoint x="-242.5" y="805.5" as="sourcePoint" />
            <Array as="points">
              <mxPoint x="-275" y="805" />
            </Array>
          </mxGeometry>
        </mxCell>
        <mxCell id="sHI6xB2BKC_EtL97-jcw-48" value="&lt;b&gt;No&lt;/b&gt;" style="edgeStyle=orthogonalEdgeStyle;rounded=0;orthogonalLoop=1;jettySize=auto;html=1;exitX=1;exitY=0.5;exitDx=0;exitDy=0;" edge="1" parent="1" source="sHI6xB2BKC_EtL97-jcw-43" target="sHI6xB2BKC_EtL97-jcw-47">
          <mxGeometry relative="1" as="geometry">
            <mxPoint x="-147.5294117647054" y="805.4705882352941" as="sourcePoint" />
          </mxGeometry>
        </mxCell>
        <mxCell id="sHI6xB2BKC_EtL97-jcw-43" value="Successful?" style="rhombus;whiteSpace=wrap;html=1;align=center;rounded=0;" vertex="1" parent="1">
          <mxGeometry x="-242.5" y="758" width="95" height="95" as="geometry" />
        </mxCell>
        <mxCell id="sHI6xB2BKC_EtL97-jcw-45" value="Monitor by courts" style="ellipse;whiteSpace=wrap;html=1;rounded=0;" vertex="1" parent="1">
          <mxGeometry x="-352" y="770.5" width="70" height="70" as="geometry" />
        </mxCell>
        <mxCell id="sHI6xB2BKC_EtL97-jcw-47" value="Consider placement" style="ellipse;whiteSpace=wrap;html=1;rounded=0;" vertex="1" parent="1">
          <mxGeometry x="-110" y="770.5" width="70" height="70" as="geometry" />
        </mxCell>
      </root>
    </mxGraphModel>
  </diagram>
</mxfile>
